NayAug-Regular-III3.ufo
<glyph name="two" format="1">
  <advance width="461.154"/>
  <unicode hex="0032"/>
  <outline>
    <contour>
      <point x="46" y="600" type="curve"/>
      <point x="105" y="553" type="line"/>
      <point x="104" y="558"/>
      <point x="103" y="564"/>
      <point x="103" y="569" type="curve" smooth="yes"/>
      <point x="103" y="630"/>
      <point x="158" y="689"/>
      <point x="219" y="689" type="curve" smooth="yes"/>
      <point x="300" y="689"/>
      <point x="351" y="640"/>
      <point x="351" y="559" type="curve" smooth="yes"/>
      <point x="351" y="413"/>
      <point x="166" y="244"/>
      <point x="28" y="70" type="curve"/>
      <point x="86" y="2" type="line"/>
      <point x="382" y="0" type="line"/>
      <point x="412" y="70" type="line"/>
      <point x="119" y="68" type="line"/>
      <point x="217" y="192"/>
      <point x="420" y="379"/>
      <point x="420" y="556" type="curve" smooth="yes"/>
      <point x="420" y="675"/>
      <point x="340" y="756"/>
      <point x="222" y="756" type="curve" smooth="yes"/>
      <point x="131" y="756"/>
      <point x="55" y="692"/>
    </contour>
  </outline>
</glyph>
<glyph name="A" format="1">
  <advance width="607.639"/>
  <unicode hex="0041"/>
  <outline>
    <contour>
      <point x="98" y="0" type="line"/>
      <point x="29" y="24" type="line"/>
      <point x="249" y="726" type="line"/>
      <point x="347" y="750" type="line"/>
      <point x="574" y="24" type="line"/>
      <point x="505" y="0" type="line"/>
      <point x="302" y="643" type="line"/>
    </contour>
    <contour>
      <point x="479" y="306" type="line"/>
      <point x="455" y="235" type="line"/>
      <point x="112" y="235" type="line"/>
      <point x="134" y="306" type="line"/>
    </contour>
  </outline>
</glyph>
<glyph name="F" format="1">
  <advance width="487.5"/>
  <unicode hex="0046"/>
  <outline>
    <contour>
      <point x="45" y="5" type="line"/>
      <point x="45" y="675" type="line"/>
      <point x="45" y="675" type="line"/>
      <point x="45" y="745" type="line"/>
      <point x="454" y="745" type="line"/>
      <point x="430" y="675" type="line"/>
      <point x="119" y="675" type="line"/>
      <point x="119" y="350" type="line"/>
      <point x="396" y="350" type="line"/>
      <point x="372" y="280" type="line"/>
      <point x="119" y="280" type="line"/>
      <point x="119" y="29" type="line"/>
    </contour>
  </outline>
</glyph>
<glyph name="G" format="1">
  <advance width="670.139"/>
  <unicode hex="0047"/>
  <outline>
    <contour>
      <point x="558" y="362" type="line"/>
      <point x="558.154" y="326.333"/>
      <point x="555.52" y="294.624"/>
      <point x="550.633" y="266.501" type="curve" smooth="yes"/>
      <point x="523.87" y="112.477"/>
      <point x="429.567" y="66"/>
      <point x="356" y="66" type="curve" smooth="yes"/>
      <point x="260" y="66"/>
      <point x="126" y="152"/>
      <point x="126" y="376" type="curve" smooth="yes"/>
      <point x="126" y="601"/>
      <point x="260" y="688"/>
      <point x="356" y="688" type="curve" smooth="yes"/>
      <point x="419" y="688"/>
      <point x="483" y="650"/>
      <point x="529" y="560" type="curve"/>
      <point x="595" y="591" type="line"/>
      <point x="543" y="693"/>
      <point x="467" y="758"/>
      <point x="355" y="758" type="curve" smooth="yes"/>
      <point x="177" y="758"/>
      <point x="52" y="594"/>
      <point x="52" y="378" type="curve" smooth="yes"/>
      <point x="52" y="162"/>
      <point x="177" y="-5"/>
      <point x="355" y="-5" type="curve" smooth="yes"/>
      <point x="493.314" y="-5"/>
      <point x="598.415" y="85.7785"/>
      <point x="624.655" y="266.067" type="curve" smooth="yes"/>
      <point x="628.959" y="295.639"/>
      <point x="631.141" y="327.618"/>
      <point x="631" y="362" type="curve"/>
    </contour>
    <contour>
      <point x="359" y="292" type="line"/>
      <point x="625" y="292" type="line"/>
      <point x="625" y="362" type="line"/>
      <point x="369" y="362" type="line"/>
    </contour>
  </outline>
</glyph>
<glyph name="H" format="1">
  <advance width="644.167"/>
  <unicode hex="0048"/>
  <outline>
    <contour>
      <point x="145.5" y="750" type="line"/>
      <point x="71.5" y="725" type="line"/>
      <point x="71.5" y="0" type="line"/>
      <point x="145.5" y="24" type="line"/>
    </contour>
    <contour>
      <point x="568.5" y="750" type="line"/>
      <point x="494.5" y="725" type="line"/>
      <point x="494.5" y="0" type="line"/>
      <point x="568.5" y="24" type="line"/>
    </contour>
    <contour>
      <point x="142.5" y="282" type="line"/>
      <point x="495.5" y="282" type="line"/>
      <point x="521.5" y="350" type="line"/>
      <point x="142.5" y="350" type="line"/>
    </contour>
  </outline>
</glyph>
<glyph name="J" format="1">
  <advance width="471.458"/>
  <unicode hex="004A"/>
  <outline>
    <contour>
      <point x="72" y="148" type="curve"/>
      <point x="22" y="98" type="line"/>
      <point x="76" y="27"/>
      <point x="128" y="-5"/>
      <point x="220.124" y="-5" type="curve" smooth="yes"/>
      <point x="387" y="-5"/>
      <point x="440" y="100"/>
      <point x="440" y="277" type="curve" smooth="yes"/>
      <point x="440" y="750" type="line"/>
      <point x="366" y="726" type="line"/>
      <point x="366" y="271" type="line" smooth="yes"/>
      <point x="366" y="173"/>
      <point x="346" y="68"/>
      <point x="218.464" y="68" type="curve" smooth="yes"/>
      <point x="155" y="68"/>
      <point x="107" y="94"/>
    </contour>
  </outline>
</glyph>
<glyph name="K" format="1">
  <advance width="612.031"/>
  <unicode hex="004B"/>
  <outline>
    <contour>
      <point x="133" y="750" type="line"/>
      <point x="59" y="725" type="line"/>
      <point x="59" y="0" type="line"/>
      <point x="133" y="24" type="line"/>
    </contour>
    <contour>
      <point x="124" y="299" type="line"/>
      <point x="558" y="725" type="line"/>
      <point x="478" y="750" type="line"/>
      <point x="95" y="374" type="line"/>
    </contour>
    <contour>
      <point x="489" y="0" type="line"/>
      <point x="567" y="24" type="line"/>
      <point x="201" y="438" type="line"/>
      <point x="167" y="365" type="line"/>
    </contour>
  </outline>
</glyph>
<glyph name="O" format="1">
  <advance width="707.5"/>
  <unicode hex="004F"/>
  <outline>
    <contour>
      <point x="40" y="376" type="curve" smooth="yes"/>
      <point x="40" y="592"/>
      <point x="175" y="756"/>
      <point x="353" y="756" type="curve" smooth="yes"/>
      <point x="532" y="756"/>
      <point x="667" y="592"/>
      <point x="667" y="376" type="curve" smooth="yes"/>
      <point x="667" y="160"/>
      <point x="532" y="-7"/>
      <point x="353" y="-7" type="curve" smooth="yes"/>
      <point x="175" y="-7"/>
      <point x="40" y="160"/>
    </contour>
    <contour>
      <point x="114" y="374" type="curve" smooth="yes"/>
      <point x="114" y="150"/>
      <point x="258" y="64"/>
      <point x="354" y="64" type="curve" smooth="yes"/>
      <point x="450" y="64"/>
      <point x="593" y="150"/>
      <point x="593" y="374" type="curve" smooth="yes"/>
      <point x="593" y="599"/>
      <point x="450" y="686"/>
      <point x="354" y="686" type="curve" smooth="yes"/>
      <point x="258" y="686"/>
      <point x="114" y="599"/>
    </contour>
  </outline>
</glyph>
<glyph name="R" format="1">
  <advance width="541.458"/>
  <unicode hex="0052"/>
  <outline>
    <contour>
      <point x="106" y="647" type="line"/>
      <point x="146" y="678"/>
      <point x="188" y="684"/>
      <point x="219" y="684" type="curve" smooth="yes"/>
      <point x="340" y="684"/>
      <point x="409" y="602"/>
      <point x="409" y="495" type="curve" smooth="yes"/>
      <point x="409" y="367"/>
      <point x="310" y="291"/>
      <point x="180" y="299" type="curve"/>
      <point x="189" y="232" type="line"/>
      <point x="341" y="224"/>
      <point x="483" y="330"/>
      <point x="483" y="495" type="curve" smooth="yes"/>
      <point x="483" y="634"/>
      <point x="381" y="753"/>
      <point x="232" y="753" type="curve" smooth="yes"/>
      <point x="188" y="753"/>
      <point x="122" y="737"/>
      <point x="111" y="691" type="curve"/>
    </contour>
    <contour>
      <point x="118" y="750" type="line"/>
      <point x="44" y="725" type="line"/>
      <point x="44" y="0" type="line"/>
      <point x="118" y="24" type="line"/>
    </contour>
    <contour>
      <point x="122" y="299" type="line"/>
      <point x="411" y="7" type="line"/>
      <point x="495" y="31" type="line"/>
      <point x="218" y="299" type="line"/>
    </contour>
  </outline>
</glyph>
<glyph name="S" format="1">
  <advance width="565.972"/>
  <unicode hex="0053"/>
  <outline>
    <contour>
      <point x="423.472" y="550" type="curve"/>
      <point x="484.472" y="575" type="line"/>
      <point x="472.472" y="669"/>
      <point x="400.472" y="755"/>
      <point x="282.472" y="755" type="curve" smooth="yes"/>
      <point x="160.472" y="755"/>
      <point x="72.4722" y="663"/>
      <point x="72.4722" y="547" type="curve" smooth="yes"/>
      <point x="72.4722" y="443"/>
      <point x="168.558" y="399.243"/>
      <point x="253.472" y="369" type="curve" smooth="yes"/>
      <point x="387.559" y="321.243"/>
      <point x="441.498" y="282"/>
      <point x="443.472" y="204" type="curve" smooth="yes"/>
      <point x="445.498" y="124"/>
      <point x="400.472" y="68"/>
      <point x="283.472" y="68" type="curve" smooth="yes"/>
      <point x="213.472" y="68"/>
      <point x="115.472" y="85"/>
      <point x="98.4722" y="228" type="curve"/>
      <point x="39.4722" y="208" type="line"/>
      <point x="39.4722" y="43"/>
      <point x="178.472" y="-6"/>
      <point x="288.472" y="-6" type="curve" smooth="yes"/>
      <point x="435.472" y="-6"/>
      <point x="517.472" y="85"/>
      <point x="517.472" y="198" type="curve" smooth="yes"/>
      <point x="517.472" y="325"/>
      <point x="406.486" y="390.042"/>
      <point x="309.472" y="422" type="curve" smooth="yes"/>
      <point x="236.486" y="446.042"/>
      <point x="145.472" y="472"/>
      <point x="145.472" y="555" type="curve" smooth="yes"/>
      <point x="145.472" y="626"/>
      <point x="207.472" y="685"/>
      <point x="282.472" y="685" type="curve" smooth="yes"/>
      <point x="366.472" y="685"/>
      <point x="419.472" y="609"/>
    </contour>
  </outline>
</glyph>
<glyph name="U" format="1">
  <advance width="598.125"/>
  <unicode hex="0055"/>
  <outline>
    <contour>
      <point x="50" y="726" type="line"/>
      <point x="50" y="209" type="line" smooth="yes"/>
      <point x="50" y="90"/>
      <point x="141" y="-5"/>
      <point x="273" y="-5" type="curve" smooth="yes"/>
      <point x="367" y="-5"/>
      <point x="465" y="48"/>
      <point x="473" y="115" type="curve"/>
      <point x="473" y="0" type="line"/>
      <point x="547" y="24" type="line"/>
      <point x="547" y="750" type="line"/>
      <point x="473" y="726" type="line"/>
      <point x="473" y="266" type="line" smooth="yes"/>
      <point x="473" y="137"/>
      <point x="392" y="65"/>
      <point x="276" y="65" type="curve" smooth="yes"/>
      <point x="189" y="65"/>
      <point x="124" y="132"/>
      <point x="124" y="209" type="curve"/>
      <point x="124" y="750" type="line"/>
    </contour>
  </outline>
</glyph>
<glyph name="c" format="1">
  <advance width="423.333"/>
  <unicode hex="0063"/>
  <outline>
    <contour>
      <point x="233" y="66" type="curve" smooth="yes"/>
      <point x="158" y="66"/>
      <point x="104" y="148"/>
      <point x="104" y="248" type="curve" smooth="yes"/>
      <point x="104" y="357"/>
      <point x="162" y="434"/>
      <point x="233" y="434" type="curve" smooth="yes"/>
      <point x="276" y="434"/>
      <point x="313" y="405"/>
      <point x="335" y="357" type="curve"/>
      <point x="402" y="391" type="line"/>
      <point x="368" y="461"/>
      <point x="308" y="504"/>
      <point x="233" y="504" type="curve" smooth="yes"/>
      <point x="115" y="504"/>
      <point x="29" y="395"/>
      <point x="29" y="250" type="curve" smooth="yes"/>
      <point x="29" y="110"/>
      <point x="109" y="-4"/>
      <point x="233" y="-4" type="curve" smooth="yes"/>
      <point x="310" y="-4"/>
      <point x="368" y="38"/>
      <point x="401" y="105" type="curve"/>
      <point x="338" y="146" type="line"/>
      <point x="318" y="97"/>
      <point x="281" y="66"/>
    </contour>
  </outline>
</glyph>
<glyph name="d" format="1">
  <advance width="472.917"/>
  <unicode hex="0064"/>
  <outline>
    <contour>
      <point x="423" y="750" type="line"/>
      <point x="349" y="726" type="line"/>
      <point x="349" y="0" type="line"/>
      <point x="423" y="24" type="line"/>
    </contour>
    <contour>
      <point x="365" y="419" type="line"/>
      <point x="355" y="479"/>
      <point x="297" y="505"/>
      <point x="235" y="505" type="curve" smooth="yes"/>
      <point x="111" y="505"/>
      <point x="37" y="388"/>
      <point x="37" y="254" type="curve" smooth="yes"/>
      <point x="37" y="134"/>
      <point x="87" y="-6"/>
      <point x="233" y="-6" type="curve" smooth="yes"/>
      <point x="282" y="-6"/>
      <point x="350" y="28"/>
      <point x="363" y="60" type="curve"/>
      <point x="349" y="162" type="line"/>
      <point x="349" y="87"/>
      <point x="284" y="64"/>
      <point x="245" y="64" type="curve" smooth="yes"/>
      <point x="138" y="64"/>
      <point x="111" y="182"/>
      <point x="111" y="239" type="curve" smooth="yes"/>
      <point x="111" y="333"/>
      <point x="146" y="435"/>
      <point x="238" y="435" type="curve" smooth="yes"/>
      <point x="282" y="435"/>
      <point x="349" y="412"/>
      <point x="349" y="309" type="curve"/>
    </contour>
  </outline>
</glyph>
<glyph name="f" format="1">
  <advance width="284.167"/>
  <unicode hex="0066"/>
  <outline>
    <contour>
      <point x="13" y="430" type="curve"/>
      <point x="37" y="500" type="line"/>
      <point x="62" y="500" type="line"/>
      <point x="62" y="577" type="line" smooth="yes"/>
      <point x="62" y="708"/>
      <point x="90" y="752"/>
      <point x="167" y="752" type="curve" smooth="yes"/>
      <point x="205" y="752"/>
      <point x="236" y="737"/>
      <point x="258" y="706" type="curve"/>
      <point x="227" y="648" type="line"/>
      <point x="227" y="648"/>
      <point x="201" y="686"/>
      <point x="176" y="686" type="curve" smooth="yes"/>
      <point x="129.988" y="686"/>
      <point x="137" y="614"/>
      <point x="136" y="588" type="curve"/>
      <point x="136" y="500" type="line"/>
      <point x="221" y="500" type="line"/>
      <point x="197" y="430" type="line"/>
      <point x="136" y="430" type="line"/>
      <point x="136" y="24" type="line"/>
      <point x="62" y="0" type="line"/>
      <point x="62" y="31"/>
      <point x="62" y="400"/>
      <point x="62" y="430" type="curve"/>
      <point x="56" y="430"/>
      <point x="19" y="430"/>
    </contour>
  </outline>
</glyph>
<glyph name="g" format="1">
  <advance width="474.583"/>
  <unicode hex="0067"/>
  <outline>
    <contour>
      <point x="346" y="338" type="line" smooth="yes"/>
      <point x="346" y="413"/>
      <point x="281" y="436"/>
      <point x="242" y="436" type="curve" smooth="yes"/>
      <point x="136" y="436"/>
      <point x="109" y="318"/>
      <point x="109" y="261" type="curve" smooth="yes"/>
      <point x="109" y="167"/>
      <point x="144" y="65"/>
      <point x="235" y="65" type="curve" smooth="yes"/>
      <point x="279" y="65"/>
      <point x="346" y="88"/>
      <point x="346" y="191" type="curve" smooth="yes"/>
    </contour>
    <contour>
      <point x="420" y="39" type="line" smooth="yes"/>
      <point x="420" y="-177"/>
      <point x="219" y="-223"/>
      <point x="71" y="-149" type="curve"/>
      <point x="88" y="-87" type="line"/>
      <point x="170" y="-132"/>
      <point x="346" y="-141"/>
      <point x="346" y="39" type="curve" smooth="yes"/>
      <point x="346" y="41.99" type="line"/>
      <point x="322.515" y="9.54729"/>
      <point x="278.376" y="-5"/>
      <point x="232" y="-5" type="curve" smooth="yes"/>
      <point x="109" y="-5"/>
      <point x="35" y="112"/>
      <point x="35" y="246" type="curve" smooth="yes"/>
      <point x="35" y="366"/>
      <point x="85" y="506"/>
      <point x="230" y="506" type="curve" smooth="yes"/>
      <point x="269.102" y="506"/>
      <point x="320.304" y="484.348"/>
      <point x="346" y="459.339" type="curve"/>
      <point x="346" y="476" type="line"/>
      <point x="420" y="500" type="line"/>
    </contour>
  </outline>
</glyph>
<glyph name="j" format="1">
  <advance width="190.797"/>
  <unicode hex="006A"/>
  <outline>
    <contour>
      <point x="136" y="11" type="line" smooth="yes"/>
      <point x="136" y="-142"/>
      <point x="80" y="-211"/>
      <point x="-65" y="-160" type="curve"/>
      <point x="-57" y="-95" type="line"/>
      <point x="38" y="-114"/>
      <point x="62" y="-114"/>
      <point x="62" y="11" type="curve"/>
      <point x="62" y="11" type="line"/>
      <point x="62" y="476" type="line"/>
      <point x="136" y="500" type="line"/>
    </contour>
    <contour>
      <point x="58" y="586" type="curve" smooth="yes"/>
      <point x="58" y="563"/>
      <point x="76" y="545"/>
      <point x="99" y="545" type="curve" smooth="yes"/>
      <point x="122" y="545"/>
      <point x="141" y="563"/>
      <point x="141" y="586" type="curve" smooth="yes"/>
      <point x="141" y="609"/>
      <point x="122" y="628"/>
      <point x="99" y="628" type="curve" smooth="yes"/>
      <point x="76" y="628"/>
      <point x="58" y="609"/>
    </contour>
  </outline>
</glyph>
<glyph name="l" format="1">
  <advance width="185.427"/>
  <unicode hex="006C"/>
  <outline>
    <contour>
      <point x="131" y="750" type="line"/>
      <point x="57" y="725" type="line"/>
      <point x="57" y="0" type="line"/>
      <point x="131" y="24" type="line"/>
    </contour>
  </outline>
</glyph>
<glyph name="p" format="1">
  <advance width="450.833"/>
  <unicode hex="0070"/>
  <outline>
    <contour>
      <point x="34" y="-180" type="line"/>
      <point x="108" y="-156" type="line"/>
      <point x="108" y="500" type="line"/>
      <point x="34" y="476" type="line"/>
    </contour>
    <contour>
      <point x="92" y="81" type="line"/>
      <point x="102" y="21"/>
      <point x="160" y="-5"/>
      <point x="222" y="-5" type="curve" smooth="yes"/>
      <point x="346" y="-5"/>
      <point x="420" y="112"/>
      <point x="420" y="246" type="curve" smooth="yes"/>
      <point x="420" y="366"/>
      <point x="370" y="506"/>
      <point x="224" y="506" type="curve" smooth="yes"/>
      <point x="175" y="506"/>
      <point x="107" y="472"/>
      <point x="94" y="440" type="curve"/>
      <point x="108" y="338" type="line"/>
      <point x="108" y="413"/>
      <point x="173" y="436"/>
      <point x="212" y="436" type="curve" smooth="yes"/>
      <point x="319" y="436"/>
      <point x="346" y="318"/>
      <point x="346" y="261" type="curve" smooth="yes"/>
      <point x="346" y="167"/>
      <point x="311" y="65"/>
      <point x="219" y="65" type="curve" smooth="yes"/>
      <point x="175" y="65"/>
      <point x="108" y="88"/>
      <point x="108" y="191" type="curve"/>
    </contour>
  </outline>
</glyph>
<glyph name="q" format="1">
  <advance width="439.167"/>
  <unicode hex="0071"/>
  <outline>
    <contour>
      <point x="409" y="-156" type="line"/>
      <point x="335" y="-180" type="line"/>
      <point x="335" y="476" type="line"/>
      <point x="409" y="500" type="line"/>
    </contour>
    <contour>
      <point x="351" y="81" type="line"/>
      <point x="341" y="21"/>
      <point x="283" y="-5"/>
      <point x="221" y="-5" type="curve" smooth="yes"/>
      <point x="98" y="-5"/>
      <point x="24" y="112"/>
      <point x="24" y="246" type="curve" smooth="yes"/>
      <point x="24" y="366"/>
      <point x="74" y="506"/>
      <point x="219" y="506" type="curve" smooth="yes"/>
      <point x="268" y="506"/>
      <point x="336" y="472"/>
      <point x="349" y="440" type="curve"/>
      <point x="335" y="338" type="line"/>
      <point x="335" y="413"/>
      <point x="270" y="436"/>
      <point x="231" y="436" type="curve" smooth="yes"/>
      <point x="125" y="436"/>
      <point x="98" y="318"/>
      <point x="98" y="261" type="curve" smooth="yes"/>
      <point x="98" y="167"/>
      <point x="133" y="65"/>
      <point x="224" y="65" type="curve" smooth="yes"/>
      <point x="268" y="65"/>
      <point x="335" y="88"/>
      <point x="335" y="191" type="curve"/>
    </contour>
  </outline>
</glyph>
<glyph name="s" format="1">
  <advance width="372.5"/>
  <unicode hex="0073"/>
  <outline>
    <contour>
      <point x="329" y="426" type="curve"/>
      <point x="285" y="377" type="line"/>
      <point x="253" y="416"/>
      <point x="213" y="434"/>
      <point x="177" y="434" type="curve" smooth="yes"/>
      <point x="135" y="434"/>
      <point x="110" y="410"/>
      <point x="110" y="375" type="curve" smooth="yes"/>
      <point x="110" y="329"/>
      <point x="153.159" y="310.368"/>
      <point x="202" y="289" type="curve" smooth="yes"/>
      <point x="265.162" y="261.367"/>
      <point x="337" y="230"/>
      <point x="337" y="132" type="curve" smooth="yes"/>
      <point x="337" y="44"/>
      <point x="279" y="-3"/>
      <point x="193" y="-3" type="curve" smooth="yes"/>
      <point x="136" y="-3"/>
      <point x="69" y="17"/>
      <point x="29" y="60" type="curve"/>
      <point x="64" y="117" type="line"/>
      <point x="93" y="90"/>
      <point x="144" y="67"/>
      <point x="185" y="67" type="curve" smooth="yes"/>
      <point x="225" y="67"/>
      <point x="263" y="90"/>
      <point x="263" y="137" type="curve" smooth="yes"/>
      <point x="263" y="190"/>
      <point x="228.918" y="200.795"/>
      <point x="179" y="221" type="curve" smooth="yes"/>
      <point x="102.917" y="251.796"/>
      <point x="35.1298" y="297.998"/>
      <point x="36" y="365" type="curve" smooth="yes"/>
      <point x="37.1298" y="451.998"/>
      <point x="98" y="504"/>
      <point x="184" y="504" type="curve" smooth="yes"/>
      <point x="238" y="504"/>
      <point x="288" y="483"/>
    </contour>
  </outline>
</glyph>
<glyph name="t" format="1">
  <advance width="261.667"/>
  <unicode hex="0074"/>
  <outline>
    <contour>
      <point x="50" y="500" type="curve"/>
      <point x="26" y="430.417" type="line"/>
      <point x="75" y="429.896" type="line"/>
      <point x="75" y="103" type="line" smooth="yes"/>
      <point x="75" y="57"/>
      <point x="90" y="-4"/>
      <point x="152" y="-4" type="curve" smooth="yes"/>
      <point x="184" y="-4"/>
      <point x="216" y="5"/>
      <point x="229" y="36" type="curve"/>
      <point x="214" y="109" type="line"/>
      <point x="208" y="95"/>
      <point x="188.979" y="72.8521"/>
      <point x="172" y="72" type="curve" smooth="yes"/>
      <point x="143.75" y="70.5822"/>
      <point x="150" y="101"/>
      <point x="148.94" y="127" type="curve"/>
      <point x="148.94" y="429.896" type="line"/>
      <point x="200.208" y="429.896" type="line"/>
      <point x="224" y="500" type="line"/>
      <point x="148.94" y="500" type="line"/>
      <point x="148.94" y="626.246" type="line"/>
      <point x="75" y="601" type="line"/>
      <point x="75" y="500" type="line"/>
      <point x="69.15" y="500"/>
      <point x="55.85" y="500"/>
    </contour>
  </outline>
</glyph>
<glyph name="u" format="1">
  <advance width="436.667"/>
  <unicode hex="0075"/>
  <outline>
    <contour>
      <point x="41" y="476" type="line"/>
      <point x="41" y="169" type="line" smooth="yes"/>
      <point x="41" y="85"/>
      <point x="97" y="-3"/>
      <point x="196" y="-3" type="curve" smooth="yes"/>
      <point x="259" y="-3"/>
      <point x="307" y="21"/>
      <point x="325" y="86" type="curve"/>
      <point x="325" y="0" type="line"/>
      <point x="399" y="25" type="line"/>
      <point x="399" y="500" type="line"/>
      <point x="325" y="476" type="line"/>
      <point x="325" y="186" type="line" smooth="yes"/>
      <point x="325" y="114"/>
      <point x="259" y="66"/>
      <point x="196" y="66" type="curve" smooth="yes"/>
      <point x="143" y="66"/>
      <point x="115" y="108"/>
      <point x="115" y="162" type="curve"/>
      <point x="115" y="500" type="line"/>
    </contour>
  </outline>
</glyph>
<glyph name="x" format="1">
  <advance width="457.213"/>
  <unicode hex="0078"/>
  <outline>
    <contour>
      <point x="33" y="24" type="line"/>
      <point x="106" y="0" type="line"/>
      <point x="423" y="476" type="line"/>
      <point x="350" y="500" type="line"/>
    </contour>
    <contour>
      <point x="106" y="500" type="line"/>
      <point x="33" y="476" type="line"/>
      <point x="350" y="0" type="line"/>
      <point x="423" y="24" type="line"/>
    </contour>
  </outline>
</glyph>
